<svg xmlns="http://www.w3.org/2000/svg" width="78" height="78" viewBox="0 0 78 78" fill="none">
  <path d="M33.446 0.0955599C15.0029 0.0955599 0 15.0985 0 33.5415C0 51.9846 15.0029 66.9875 33.446 66.9875C39.084 66.9875 44.6265 65.6496 49.3089 63.0695C49.684 63.5209 50.0998 63.9367 50.5512 64.3118L60.1072 73.8678C60.9895 74.8607 62.0655 75.6627 63.2691 76.2247C64.4726 76.7867 65.7784 77.0967 67.1061 77.1358C68.4338 77.1749 69.7555 76.9422 70.9901 76.452C72.2246 75.9618 73.3459 75.2244 74.2851 74.2851C75.2244 73.3459 75.9618 72.2246 76.452 70.9901C76.9422 69.7555 77.1749 68.4338 77.1358 67.1061C77.0967 65.7784 76.7867 64.4726 76.2247 63.2691C75.6627 62.0655 74.8607 60.9895 73.8678 60.1072L64.3118 50.5512C63.8463 50.0855 63.3339 49.6692 62.7828 49.3089C65.363 44.6265 66.9875 39.1796 66.9875 33.446C66.9875 15.0029 51.9846 0 33.5415 0L33.446 0.0955599ZM33.446 9.65155C46.7288 9.65155 57.3359 20.2587 57.3359 33.5415C57.3359 39.8485 55.0425 45.6776 51.029 49.9778C50.9334 50.0734 50.8379 50.1689 50.7423 50.2645C50.2909 50.6396 49.8751 51.0554 49.5 51.5068C45.2954 55.3292 39.5618 57.5271 33.3504 57.5271C20.0676 57.5271 9.46043 46.9199 9.46043 33.6371C9.46043 20.3543 20.0676 9.74711 33.3504 9.74711L33.446 9.65155Z" fill="#3F72AF"/>
</svg>