<svg xmlns="http://www.w3.org/2000/svg" width="78" height="78" viewBox="0 0 78 78" fill="none">
  <path d="M12.9053 0.0195421C11.6282 0.223882 10.4845 0.927189 9.72595 1.97474C8.96738 3.0223 8.65601 4.32829 8.86035 5.60542C9.06469 6.88254 9.768 8.02619 10.8156 8.78476C11.8631 9.54333 13.1691 9.8547 14.4462 9.65036H19.2616V23.2298C18.3949 24.8671 7.70465 45.477 3.27448 52.989C1.73355 55.493 0 58.8638 0 63.1977C0 66.9537 1.44462 70.6134 3.94864 73.1174C6.45265 75.6215 10.1124 77.0661 13.8684 77.0661H63.2745C66.9342 77.0661 70.4013 75.5251 72.9053 73.1174H73.1942C75.6982 70.6134 77.1429 66.9537 77.1429 63.1977C77.1429 58.8638 75.313 55.493 73.8684 52.989C69.4382 45.477 58.748 24.8671 57.8812 23.2298V9.65036H62.6966C63.9738 9.65036 65.1986 9.14302 66.1016 8.23996C67.0047 7.33689 67.512 6.11208 67.512 4.83495C67.512 3.55782 67.0047 2.33301 66.1016 1.42994C65.1986 0.526878 63.9738 0.0195421 62.6966 0.0195421H14.5425C14.2542 -0.00651402 13.9641 -0.00651402 13.6758 0.0195421C13.4833 0.00797466 13.2904 0.00797466 13.0979 0.0195421H12.9053ZM28.8925 9.65036H48.1541V25.3486L48.7319 26.2154C48.7319 26.2154 54.7994 38.0613 60.1926 48.1736H16.8539C22.2472 38.0613 28.3146 26.2154 28.3146 26.2154L28.8925 25.3486V9.65036Z" fill="#3F72AF"/>
</svg>